<?xml version="1.0" standalone="no"?>
<!DOCTYPE svg PUBLIC "-//W3C//DTD SVG 1.1//EN" "http://www.w3.org/Graphics/SVG/1.1/DTD/svg11.dtd" >
<svg xmlns="http://www.w3.org/2000/svg" xmlns:xlink="http://www.w3.org/1999/xlink" version="1.1" viewBox="-10 0 2314 4096">
   <path fill="currentColor"
d="M1536 2816v-256h-256v256h256zM1792 3584h-512v-512h-768v-256h256v-256h256v-256h256v-256h512v768h256v256h-256v512zM768 2304h-256v256h-256v256h-256v-512h256v-256h256v-256h256v-256h-512v-768h-256v-256h256v-256h512v1280h256v-256h256v-256h256v-256h256v512
h-256v256h-256v256h-256v256h-256v256z" />
</svg>
