<?xml version="1.0" standalone="no"?>
<!DOCTYPE svg PUBLIC "-//W3C//DTD SVG 1.1//EN" "http://www.w3.org/Graphics/SVG/1.1/DTD/svg11.dtd" >
<svg xmlns="http://www.w3.org/2000/svg" xmlns:xlink="http://www.w3.org/1999/xlink" version="1.1" viewBox="-10 0 2314 4096">
   <path fill="currentColor"
d="M1792 3072h256v256h-256v-256zM1792 2048h256v256h-256v-256zM1792 1024h256v256h-256v-256zM1792 512h256v256h-256v-256zM1792 1536h256v256h-256v-256zM1792 2560h256v256h-256v-256zM1792 3584h256v256h-256v-256zM1792 0h256v256h-256v-256zM1280 3328h256v256h-256
v-256zM1280 2304h256v256h-256v-256zM1280 1280h256v256h-256v-256zM1280 768h256v256h-256v-256zM1280 1792h256v256h-256v-256zM1280 2816h256v256h-256v-256zM1280 3840h256v256h-256v-256zM1280 256h256v256h-256v-256zM768 3072h256v256h-256v-256zM768 2048h256v256
h-256v-256zM768 1024h256v256h-256v-256zM768 512h256v256h-256v-256zM768 1536h256v256h-256v-256zM768 2560h256v256h-256v-256zM768 3584h256v256h-256v-256zM768 0h256v256h-256v-256zM256 3328h256v256h-256v-256zM256 2304h256v256h-256v-256zM256 1280h256v256h-256
v-256zM256 768h256v256h-256v-256zM256 1792h256v256h-256v-256zM256 2816h256v256h-256v-256zM256 3840h256v256h-256v-256zM256 256h256v256h-256v-256z" />
</svg>
