<?xml version="1.0" standalone="no"?>
<!DOCTYPE svg PUBLIC "-//W3C//DTD SVG 1.1//EN" "http://www.w3.org/Graphics/SVG/1.1/DTD/svg11.dtd" >
<svg xmlns="http://www.w3.org/2000/svg" xmlns:xlink="http://www.w3.org/1999/xlink" version="1.1" viewBox="-10 0 2314 4096">
   <path fill="currentColor"
d="M1538 3840h254l2 2v254h-256v-256zM1794 3584h254l2 2l-2 254h-254v-256zM1026 3840h254l2 2v254h-256v-256zM1282 3584h254l2 2l-2 254h-254v-256zM514 3840h254l2 2v254h-256v-256zM770 3584h254l2 2l-2 254h-254v-256zM0 3840h254l2 2v254h-256v-256zM256 3584h254
l2 2l-2 254h-254v-256zM1538 3328h254l2 2v254h-256v-256zM1794 3072h254l2 2l-2 254h-254v-256zM1026 3328h254l2 2v254h-256v-256zM1282 3072h254l2 2l-2 254h-254v-256zM514 3328h254l2 2v254h-256v-256zM770 3072h254l2 2l-2 254h-254v-256zM0 3328h254l2 2v254h-256
v-256zM256 3072h254l2 2l-2 254h-254v-256zM1538 2816h254l2 2v254h-256v-256zM1794 2560h254l2 2l-2 254h-254v-256zM1026 2816h254l2 2v254h-256v-256zM1282 2560h254l2 2l-2 254h-254v-256zM514 2816h254l2 2v254h-256v-256zM770 2560h254l2 2l-2 254h-254v-256zM0 2816
h254l2 2v254h-256v-256zM256 2560h254l2 2l-2 254h-254v-256zM1538 2304h254l2 2v254h-256v-256zM1794 2048h254l2 2l-2 254h-254v-256zM1026 2304h254l2 2v254h-256v-256zM1282 2048h254l2 2l-2 254h-254v-256zM514 2304h254l2 2v254h-256v-256zM770 2048h254l2 2l-2 254
h-254v-256zM0 2304h254l2 2v254h-256v-256zM256 2048h254l2 2l-2 254h-254v-256zM1538 1792h254l2 2v254h-256v-256zM1794 1536h254l2 2l-2 254h-254v-256zM1026 1792h254l2 2v254h-256v-256zM1282 1536h254l2 2l-2 254h-254v-256zM514 1792h254l2 2v254h-256v-256z
M770 1536h254l2 2l-2 254h-254v-256zM0 1792h254l2 2v254h-256v-256zM256 1536h254l2 2l-2 254h-254v-256zM1538 1280h254l2 2v254h-256v-256zM1794 1024h254l2 2l-2 254h-254v-256zM1026 1280h254l2 2v254h-256v-256zM1282 1024h254l2 2l-2 254h-254v-256zM514 1280h254
l2 2v254h-256v-256zM770 1024h254l2 2l-2 254h-254v-256zM0 1280h254l2 2v254h-256v-256zM256 1024h254l2 2l-2 254h-254v-256zM1538 768h254l2 2v254h-256v-256zM1794 512h254l2 2l-2 254h-254v-256zM1026 768h254l2 2v254h-256v-256zM1282 512h254l2 2l-2 254h-254v-256z
M514 768h254l2 2v254h-256v-256zM770 512h254l2 2l-2 254h-254v-256zM0 768h254l2 2v254h-256v-256zM256 512h254l2 2l-2 254h-254v-256zM1536 256h254l2 2v254h-256v-256zM1792 0h256v256h-256v-256zM1024 256h254l2 2v254h-256v-256zM1280 0h256v256h-256v-256zM512 256
h254l2 2v254h-256v-256zM768 0h256v256h-256v-256zM0 256h254l2 2v254h-256v-256zM256 0h256v256h-256v-256z" />
</svg>
