<?xml version="1.0" standalone="no"?>
<!DOCTYPE svg PUBLIC "-//W3C//DTD SVG 1.1//EN" "http://www.w3.org/Graphics/SVG/1.1/DTD/svg11.dtd" >
<svg xmlns="http://www.w3.org/2000/svg" xmlns:xlink="http://www.w3.org/1999/xlink" version="1.1" viewBox="-10 0 2314 4096">
   <path fill="currentColor"
d="M1792 768v-256h-256v256h256zM1792 1792v-256h-256v256h256zM1792 2816v-256h-256v256h256zM1792 3840v-256h-256v256h256zM1280 3584v-256h-256v256h256zM1280 2560v-256h-256v256h256zM1280 1536v-256h-256v256h256zM1280 512v-256h-256v256h256zM768 2304v-256h-256
v256h256zM768 3328v-256h-256v256h256zM768 1280v-256h-256v256h256zM768 768v-256h-256v256h256zM768 3840v-256h-256v256h256zM768 2816v-256h-256v256h256zM768 1792v-256h-256v256h256zM1280 1024v-256h-256v256h256zM1280 2048v-256h-256v256h256zM1280 3072v-256h-256
v256h256zM1792 3328v-256h-256v256h256zM1792 2304v-256h-256v256h256zM1792 1280v-256h-256v256h256zM1792 256v-256h256v4096h-768v-256h-256v256h-768v-256h-256v-256h256v-256h-256v-256h256v-256h-256v-256h256v-256h-256v-256h256v-256h-256v-256h256v-256h-256v-256
h256v-256h-256v-256h256v-256h-256v-256h512v256h256v-256h768v256h256z" />
</svg>
